<svg width="579" height="100" viewBox="0 0 579 100" fill="none" xmlns="http://www.w3.org/2000/svg">
<path d="M90.7666 96.392C91.0346 96.392 91.1686 96.66 91.1686 97.196C91.1686 97.732 91.0346 98 90.7666 98C89.1586 98 86.6573 97.9107 83.2626 97.732C79.5106 97.5533 76.5179 97.464 74.2846 97.464C71.9619 97.464 69.1033 97.5533 65.7086 97.732C62.4926 97.9107 60.1253 98 58.6066 98C58.2493 98 58.0706 97.732 58.0706 97.196C58.0706 96.66 58.2493 96.392 58.6066 96.392C61.2866 96.392 63.2073 96.124 64.3686 95.588C65.5299 94.9627 66.1106 93.8907 66.1106 92.372C66.1106 91.032 65.5746 89.156 64.5026 86.744L52.7106 58.47H31.5386L22.4266 80.714C20.9973 84.1087 20.2826 86.8333 20.2826 88.888C20.2826 91.4787 21.3099 93.3993 23.3646 94.65C25.4193 95.8113 28.5906 96.392 32.8786 96.392C33.2359 96.392 33.4146 96.66 33.4146 97.196C33.4146 97.732 33.1913 98 32.7446 98C31.5833 98 29.0373 97.9107 25.1066 97.732C20.6399 97.5533 17.2453 97.464 14.9226 97.464C12.7786 97.464 10.2773 97.5533 7.4186 97.732C4.91727 97.9107 2.8626 98 1.2546 98C0.897266 98 0.718599 97.732 0.718599 97.196C0.718599 96.66 0.897266 96.392 1.2546 96.392C3.9346 96.392 6.83793 94.9627 9.9646 92.104C13.1806 89.156 15.9499 85.0467 18.2726 79.776L46.5466 13.044C46.5466 12.776 46.8593 12.642 47.4846 12.642C48.2886 12.642 48.8693 12.8207 49.2266 13.178L79.2426 86.744C80.5826 89.8707 81.5653 91.97 82.1906 93.042C82.9053 94.114 83.8879 94.9627 85.1386 95.588C86.3893 96.124 88.2653 96.392 90.7666 96.392ZM33.1466 54.718H51.2366L42.1246 32.876L33.1466 54.718ZM113.72 99.206C110.504 99.206 108.182 98.134 106.752 95.99C105.323 93.7567 104.653 90.4513 104.742 86.074L105.144 19.074C105.234 16.2153 104.966 14.1607 104.34 12.91C103.715 11.57 102.643 10.9 101.124 10.9C99.5164 10.9 97.551 11.4807 95.2284 12.642H94.9604C94.5137 12.642 94.2457 12.4187 94.1564 11.972C93.9777 11.436 94.067 11.1233 94.4244 11.034L115.462 0.849997H115.73C116.088 0.849997 116.445 0.983995 116.802 1.25199C117.16 1.51999 117.338 1.74333 117.338 1.922L117.204 86.074C117.026 90.2727 118.053 92.372 120.286 92.372C121.18 92.372 122.162 91.97 123.234 91.166C124.396 90.362 125.691 89.2007 127.12 87.682C127.299 87.5033 127.478 87.414 127.656 87.414C127.924 87.414 128.148 87.5927 128.326 87.95C128.594 88.218 128.684 88.486 128.594 88.754C125.914 92.4167 123.458 95.0967 121.224 96.794C118.991 98.402 116.49 99.206 113.72 99.206ZM200.521 87.548C200.61 87.4587 200.744 87.414 200.923 87.414C201.28 87.414 201.548 87.5927 201.727 87.95C201.995 88.218 202.084 88.486 201.995 88.754C199.226 92.4167 196.724 95.0967 194.491 96.794C192.347 98.402 189.89 99.206 187.121 99.206C183.994 99.206 181.672 98.134 180.153 95.99C178.724 93.7567 178.054 90.4513 178.143 86.074L178.277 64.768C178.277 56.3707 176.222 52.172 172.113 52.172C169.254 52.172 166.664 53.8247 164.341 57.13C162.018 60.346 160.142 65.17 158.713 71.602C157.373 77.9447 156.658 85.538 156.569 94.382V96.392C156.569 97.196 155.899 97.8213 154.559 98.268C153.219 98.804 151.254 99.072 148.663 99.072C145.536 99.072 143.884 98.7147 143.705 98V94.918C143.884 92.4167 143.973 90.1387 143.973 88.084L144.509 19.074C144.598 16.2153 144.286 14.116 143.571 12.776C142.946 11.436 141.874 10.766 140.355 10.766C138.926 10.766 136.96 11.3913 134.459 12.642H134.325C133.968 12.642 133.7 12.4187 133.521 11.972C133.253 11.5253 133.298 11.2127 133.655 11.034L154.827 0.849997H155.095C155.452 0.849997 155.81 0.983995 156.167 1.25199C156.524 1.51999 156.703 1.74333 156.703 1.922L156.569 68.252C158.445 60.6587 161.214 54.8073 164.877 50.698C168.54 46.5887 172.872 44.534 177.875 44.534C186.54 44.534 190.873 50.43 190.873 62.222L190.605 86.074C190.426 90.2727 191.454 92.372 193.687 92.372C195.384 92.372 197.662 90.764 200.521 87.548ZM269.834 87.682C269.923 87.5927 270.057 87.548 270.236 87.548C270.504 87.548 270.772 87.7267 271.04 88.084C271.308 88.352 271.397 88.5753 271.308 88.754C268.806 92.238 266.394 94.8733 264.072 96.66C261.749 98.3573 259.382 99.206 256.97 99.206C253.754 99.206 251.342 98.134 249.734 95.99C248.126 93.846 247.322 90.5407 247.322 86.074V76.962C244.91 84.1087 241.515 89.692 237.138 93.712C232.76 97.732 228.115 99.742 223.202 99.742C219.539 99.742 216.546 98.536 214.224 96.124C211.99 93.6227 210.874 89.826 210.874 84.734C210.874 78.838 212.482 72.7633 215.698 66.51C218.914 60.1673 223.023 54.9413 228.026 50.832C233.118 46.6333 238.299 44.534 243.57 44.534C245.446 44.534 247.366 44.8467 249.332 45.472C251.386 46.008 253.218 46.8567 254.826 48.018C256.523 46.678 257.774 45.1593 258.578 43.462C258.756 43.2833 258.935 43.194 259.114 43.194C259.382 43.194 259.65 43.2833 259.918 43.462C260.275 43.6407 260.409 43.7747 260.32 43.864L260.052 86.074C259.962 88.1287 260.141 89.692 260.588 90.764C261.124 91.836 261.883 92.372 262.866 92.372C263.759 92.372 264.831 91.97 266.082 91.166C267.332 90.2727 268.583 89.1113 269.834 87.682ZM230.84 89.96C233.788 89.96 236.512 88.5307 239.014 85.672C241.604 82.8133 243.614 79.3293 245.044 75.22C246.562 71.0213 247.322 67.18 247.322 63.696C247.322 59.7653 246.384 56.6833 244.508 54.45C242.721 52.2167 240.264 51.1 237.138 51.1C232.582 51.1 229.008 53.3333 226.418 57.8C223.827 62.1773 222.532 67.8947 222.532 74.952C222.621 80.2227 223.425 84.064 224.944 86.476C226.462 88.7987 228.428 89.96 230.84 89.96ZM296.039 99.474C291.662 99.474 287.731 98.536 284.247 96.66C280.852 94.784 279.11 92.506 279.021 89.826C279.021 88.0393 279.557 86.6993 280.629 85.806C281.701 84.8233 283.086 84.332 284.783 84.332C286.391 84.332 287.776 84.7787 288.937 85.672C290.098 86.476 291.438 87.7267 292.957 89.424C294.744 91.3 296.262 92.6847 297.513 93.578C298.853 94.4713 300.461 94.918 302.337 94.918C304.034 94.918 305.196 94.5607 305.821 93.846C306.536 93.042 306.893 91.7913 306.893 90.094C306.893 86.878 305.776 84.198 303.543 82.054C301.31 79.8207 298.004 77.3193 293.627 74.55C290.59 72.5847 288.222 70.932 286.525 69.592C284.828 68.252 283.354 66.6887 282.103 64.902C280.942 63.1153 280.361 61.0607 280.361 58.738C280.361 56.5047 281.165 54.316 282.773 52.172C284.381 50.028 286.614 48.286 289.473 46.946C292.421 45.606 295.771 44.936 299.523 44.936C304.258 44.936 308.099 45.6953 311.047 47.214C313.995 48.6433 315.514 50.564 315.603 52.976C315.782 54.6733 315.29 56.0133 314.129 56.996C313.057 57.9787 311.762 58.47 310.243 58.47C308.099 58.47 306.446 58.068 305.285 57.264C304.213 56.46 303.096 55.2093 301.935 53.512C300.774 51.904 299.657 50.698 298.585 49.894C297.602 49.09 296.128 48.688 294.163 48.688C292.555 48.688 291.394 49.09 290.679 49.894C289.964 50.698 289.607 51.6807 289.607 52.842C289.607 55.6113 290.679 58.0233 292.823 60.078C294.967 62.0433 298.138 64.366 302.337 67.046C306.982 69.994 310.466 72.674 312.789 75.086C315.112 77.4087 316.273 80.2227 316.273 83.528C316.184 85.94 315.335 88.3967 313.727 90.898C312.119 93.31 309.796 95.3647 306.759 97.062C303.722 98.67 300.148 99.474 296.039 99.474ZM394.387 87.414C394.744 87.414 395.057 87.5927 395.325 87.95C395.593 88.218 395.637 88.486 395.459 88.754C392.779 92.4167 390.322 95.0967 388.089 96.794C385.855 98.402 383.354 99.206 380.585 99.206C377.369 99.206 375.046 98.134 373.617 95.99C372.187 93.7567 371.517 90.4513 371.607 86.074L371.875 64.768C371.875 56.3707 369.731 52.172 365.443 52.172C362.584 52.172 359.993 53.78 357.671 56.996C355.348 60.212 353.472 64.9913 352.043 71.334C350.703 77.5873 349.988 85.0467 349.899 93.712V96.392C349.899 97.196 349.229 97.8213 347.889 98.268C346.638 98.804 344.717 99.072 342.127 99.072C339 99.072 337.347 98.7147 337.169 98V94.918C337.347 92.4167 337.437 90.1387 337.437 88.084L337.705 58.202C337.705 53.8247 336.543 51.636 334.221 51.636C332.255 51.636 329.799 53.4227 326.851 56.996C326.761 57.0853 326.627 57.13 326.449 57.13C326.091 57.13 325.779 56.996 325.511 56.728C325.243 56.3707 325.198 56.058 325.377 55.79C328.057 52.038 330.647 49.3133 333.149 47.616C335.65 45.9187 338.285 45.07 341.055 45.07C344.181 45.07 346.415 46.0527 347.755 48.018C349.184 49.894 349.943 52.7527 350.033 56.594V68.922C351.909 61.15 354.678 55.1647 358.341 50.966C362.003 46.678 366.336 44.534 371.339 44.534C379.915 44.534 384.203 50.43 384.203 62.222L384.069 86.074C383.979 90.2727 385.007 92.372 387.151 92.372C388.133 92.372 389.116 91.97 390.099 91.166C391.171 90.362 392.421 89.2007 393.851 87.682L394.387 87.414ZM463.228 87.682C463.317 87.5927 463.451 87.548 463.63 87.548C463.898 87.548 464.166 87.7267 464.434 88.084C464.702 88.352 464.791 88.5753 464.702 88.754C462.201 92.238 459.789 94.8733 457.466 96.66C455.143 98.3573 452.776 99.206 450.364 99.206C447.148 99.206 444.736 98.134 443.128 95.99C441.52 93.846 440.716 90.5407 440.716 86.074V76.962C438.304 84.1087 434.909 89.692 430.532 93.712C426.155 97.732 421.509 99.742 416.596 99.742C412.933 99.742 409.941 98.536 407.618 96.124C405.385 93.6227 404.268 89.826 404.268 84.734C404.268 78.838 405.876 72.7633 409.092 66.51C412.308 60.1673 416.417 54.9413 421.42 50.832C426.512 46.6333 431.693 44.534 436.964 44.534C438.84 44.534 440.761 44.8467 442.726 45.472C444.781 46.008 446.612 46.8567 448.22 48.018C449.917 46.678 451.168 45.1593 451.972 43.462C452.151 43.2833 452.329 43.194 452.508 43.194C452.776 43.194 453.044 43.2833 453.312 43.462C453.669 43.6407 453.803 43.7747 453.714 43.864L453.446 86.074C453.357 88.1287 453.535 89.692 453.982 90.764C454.518 91.836 455.277 92.372 456.26 92.372C457.153 92.372 458.225 91.97 459.476 91.166C460.727 90.2727 461.977 89.1113 463.228 87.682ZM424.234 89.96C427.182 89.96 429.907 88.5307 432.408 85.672C434.999 82.8133 437.009 79.3293 438.438 75.22C439.957 71.0213 440.716 67.18 440.716 63.696C440.716 59.7653 439.778 56.6833 437.902 54.45C436.115 52.2167 433.659 51.1 430.532 51.1C425.976 51.1 422.403 53.3333 419.812 57.8C417.221 62.1773 415.926 67.8947 415.926 74.952C416.015 80.2227 416.819 84.064 418.338 86.476C419.857 88.7987 421.822 89.96 424.234 89.96ZM489.299 99.206C486.083 99.206 483.716 98.134 482.197 95.99C480.768 93.7567 480.143 90.4513 480.321 86.074L480.857 58.202C480.947 53.8247 479.785 51.636 477.373 51.636C475.408 51.636 472.951 53.4227 470.003 56.996C469.914 57.0853 469.78 57.13 469.601 57.13C469.333 57.13 469.065 56.996 468.797 56.728C468.44 56.3707 468.351 56.058 468.529 55.79C471.209 52.038 473.8 49.3133 476.301 47.616C478.892 45.9187 481.527 45.07 484.207 45.07C490.282 45.07 493.319 48.9113 493.319 56.594L492.783 86.074C492.605 90.2727 493.632 92.372 495.865 92.372C496.759 92.372 497.652 92.0147 498.545 91.3C499.528 90.5853 500.868 89.3793 502.565 87.682C502.744 87.5033 502.923 87.414 503.101 87.414C503.459 87.414 503.727 87.5927 503.905 87.95C504.173 88.218 504.263 88.486 504.173 88.754C501.493 92.4167 499.037 95.0967 496.803 96.794C494.57 98.402 492.069 99.206 489.299 99.206ZM485.681 31.67C483.091 31.67 481.081 30.9553 479.651 29.526C478.222 28.0967 477.507 26.0867 477.507 23.496C477.507 21.1733 478.222 19.342 479.651 18.002C481.17 16.5727 483.18 15.858 485.681 15.858C488.183 15.858 490.103 16.528 491.443 17.868C492.783 19.208 493.453 21.084 493.453 23.496C493.453 26.0867 492.783 28.0967 491.443 29.526C490.103 30.9553 488.183 31.67 485.681 31.67ZM577.574 87.414C577.931 87.414 578.244 87.5927 578.512 87.95C578.78 88.218 578.825 88.486 578.646 88.754C575.966 92.4167 573.509 95.0967 571.276 96.794C569.043 98.402 566.541 99.206 563.772 99.206C560.556 99.206 558.233 98.134 556.804 95.99C555.375 93.7567 554.705 90.4513 554.794 86.074L555.062 64.768C555.062 56.3707 552.918 52.172 548.63 52.172C545.771 52.172 543.181 53.78 540.858 56.996C538.535 60.212 536.659 64.9913 535.23 71.334C533.89 77.5873 533.175 85.0467 533.086 93.712V96.392C533.086 97.196 532.416 97.8213 531.076 98.268C529.825 98.804 527.905 99.072 525.314 99.072C522.187 99.072 520.535 98.7147 520.356 98V94.918C520.535 92.4167 520.624 90.1387 520.624 88.084L520.892 58.202C520.892 53.8247 519.731 51.636 517.408 51.636C515.443 51.636 512.986 53.4227 510.038 56.996C509.949 57.0853 509.815 57.13 509.636 57.13C509.279 57.13 508.966 56.996 508.698 56.728C508.43 56.3707 508.385 56.058 508.564 55.79C511.244 52.038 513.835 49.3133 516.336 47.616C518.837 45.9187 521.473 45.07 524.242 45.07C527.369 45.07 529.602 46.0527 530.942 48.018C532.371 49.894 533.131 52.7527 533.22 56.594V68.922C535.096 61.15 537.865 55.1647 541.528 50.966C545.191 46.678 549.523 44.534 554.526 44.534C563.102 44.534 567.39 50.43 567.39 62.222L567.256 86.074C567.167 90.2727 568.194 92.372 570.338 92.372C571.321 92.372 572.303 91.97 573.286 91.166C574.358 90.362 575.609 89.2007 577.038 87.682L577.574 87.414Z" fill="white"/>
</svg>
